<svg viewBox="0 0 14 14" fill="none" xmlns="http://www.w3.org/2000/svg" style="position: absolute; height: 100%; width: 100%; left: 0; top: 0;">
<path fill-rule="evenodd" clip-rule="evenodd" d="M7 14C10.866 14 14 10.866 14 7C14 3.13401 10.866 0 7 0C3.13401 0 0 3.13401 0 7C0 10.866 3.13401 14 7 14ZM6.09217 7.81401L9.20311 4.7031C9.44874 4.45757 9.84688 4.45757 10.0923 4.7031C10.338 4.94864 10.338 5.34673 10.0923 5.59226L6.62009 9.06448C6.59573 9.10283 6.56682 9.13912 6.53333 9.17256C6.28787 9.41821 5.88965 9.41821 5.64402 9.17256L3.7059 7.11031C3.46046 6.86464 3.46046 6.46669 3.7059 6.22102C3.95154 5.97548 4.34968 5.97548 4.59512 6.22102L6.09217 7.81401Z" fill="currentColor"></path>
</svg>