<svg xmlns="http://www.w3.org/2000/svg" fill="currentColor" viewBox="0.89 0 19.69 16" role="img" height="18" width="20"><path fill="#fff" d="M18.568 3.983c.012.174.012.347.012.523C18.58 9.844 14.517 16 7.086 16v-.003a11.437 11.437 0 0 1-6.193-1.811 8.112 8.112 0 0 0 5.979-1.674 4.045 4.045 0 0 1-3.774-2.806c.606.117 1.23.093 1.824-.07a4.04 4.04 0 0 1-3.24-3.96v-.05c.56.312 1.19.486 1.833.505A4.045 4.045 0 0 1 2.265.737a11.466 11.466 0 0 0 8.325 4.22 4.042 4.042 0 0 1 6.885-3.684 8.106 8.106 0 0 0 2.565-.98 4.055 4.055 0 0 1-1.776 2.233 8.034 8.034 0 0 0 2.32-.636 8.209 8.209 0 0 1-2.016 2.093Z"></path></svg>